<?xml version="1.0" encoding="utf-8"?>
<!-- Generator: Adobe Illustrator 25.3.1, SVG Export Plug-In . SVG Version: 6.00 Build 0)  -->
<svg version="1.1" id="Layer_1" xmlns="http://www.w3.org/2000/svg" xmlns:xlink="http://www.w3.org/1999/xlink" x="0px" y="0px"
	 viewBox="0 0 341 89" style="enable-background:new 0 0 341 89;" xml:space="preserve">
<style type="text/css">
	.st0{fill:#D7D5D5;}
</style>
<g>
	<g>
		<polygon points="170.4,89.1 170.3,89.1 170.3,88.1 170.4,88.1 170.4,89.1 		"/>
	</g>
	<g>
		<path class="st0" d="M169.1,89.1c-21.5,0-42.4-15.7-50.1-37.9c-2.6-7.3-4.1-15.6-4.6-25.3l-0.1-0.9c-0.4-6.4-0.8-13.6-6.6-17.5
			c-6.5-4.3-12.9-1.8-15.4-0.6L92.1,7c-1.3,0.6-2.6,1.3-3.9,1.9L-0.2,50.4V0H341v50.4L252.5,8.9c-1.3-0.6-2.6-1.3-3.9-1.9l-0.2-0.1
			c-2.5-1.3-9-3.7-15.4,0.6c-5.9,3.9-6.3,11.1-6.6,17.5l-0.1,0.9c-0.6,9.7-2.1,18-4.6,25.3c-7.7,22.2-29.8,38.5-51.4,37.9
			C170,89.1,169.5,89.1,169.1,89.1z M170.4,88.1l0,0.2L170.4,88.1c21.2,0.6,42.8-15.4,50.4-37.2c2.5-7.3,4-15.5,4.6-25.1l0.1-0.9
			c0.4-6.6,0.8-14.1,7.1-18.3c6.9-4.6,13.8-2,16.4-0.6l0.2,0.1c1.3,0.6,2.5,1.3,3.8,1.9L340,48.8V1H0.8v47.8L87.8,8
			c1.3-0.6,2.6-1.2,3.8-1.9L91.8,6c2.6-1.3,9.5-4,16.4,0.6c6.3,4.2,6.7,11.7,7.1,18.3l0.1,0.9c0.6,9.6,2.1,17.8,4.6,25.1
			C127.6,72.7,149.2,88.7,170.4,88.1L170.4,88.1L170.4,88.1C170.3,88.1,170.3,88.1,170.4,88.1L170.4,88.1L170.4,88.1
			C170.4,88.1,170.4,88.1,170.4,88.1L170.4,88.1z"/>
	</g>
</g>
</svg>
