<svg id="Layer_1" data-name="Layer 1" xmlns="http://www.w3.org/2000/svg" viewBox="0 0 345.52734 402.85059"><defs><style>.cls-1{fill:none;}</style></defs><path class="cls-1" d="M252.95605,147.05566a137.3993,137.3993,0,0,0-75.76757-22.65527l-.477.00562v.00024l-.95356.01245-.00836.00025a137.29493,137.29493,0,0,0-76.3291,23.97363q-2.43989,1.66771-4.799,3.43286c-.5213.38989-1.02234.803-1.53766,1.19946-1.03943.8-2.08319,1.59522-3.09808,2.4231-.6073.49536-1.1919,1.01611-1.79029,1.52173-.89764.75781-1.80267,1.50781-2.68,2.28784-.62585.55664-1.22821,1.13794-1.84369,1.70581-.82263.75879-1.65338,1.50879-2.45721,2.28711-.62323.60351-1.2229,1.23144-1.83478,1.84668-.76764.772-1.54334,1.53564-2.29291,2.32617-.60986.64282-1.19623,1.30908-1.79394,1.96411-.7226.79175-1.45282,1.57593-2.15754,2.38526-.59008.67749-1.157,1.37719-1.73437,2.06689-.68256.81519-1.37225,1.62353-2.03693,2.45557-.56726.71-1.11169,1.44091-1.66577,2.16284-.54846.71484-1.10022,1.42651-1.63568,2.15283v45.67822c.24231-.72461.49738-1.44433.75378-2.16406.04761-.13354.09192-.26831.14-.40186.48553-1.34668,1.00189-2.68237,1.53644-4.01049.10717-.26612.214-.53223.32306-.79761q.80373-1.95483,1.67547-3.88159c.10034-.22095.20471-.43994.30646-.6604q.87231-1.89039,1.80823-3.75122c.04815-.09522.0935-.1919.1419-.28687.6529-1.2832,1.33631-2.55127,2.03656-3.8103.13837-.24878.27582-.4978.416-.74536q1.03939-1.83692,2.14441-3.6377c.13586-.221.27527-.43945.4126-.65967.75048-1.20288,1.518-2.396,2.3128-3.57177.03552-.05274.06934-.1062.10492-.1587.816-1.20312,1.662-2.38671,2.5238-3.55981.16517-.22485.329-.45044.49592-.67407q1.26644-1.69776,2.59613-3.35156c.16912-.21.3413-.41773.512-.62671.93207-1.14185,1.87939-2.27271,2.85669-3.38013a116.54916,116.54916,0,0,1,30.92969-24.87207l1.45507,2.624-1.45459-2.624a116.49683,116.49683,0,0,1,112.71778,0l-1.45459,2.624,1.45508-2.624a116.51487,116.51487,0,0,1,59.87939,95.96973l-2.11066.10522,1.9433-.09595.16736-.0083h.00049c.09717,1.96973.14648,3.94629.14648,5.875v77.33887l22.34619,8.93848V262.39258a136.78354,136.78354,0,0,0-27.748-82.99805A138.31682,138.31682,0,0,0,252.95605,147.05566Z" transform="translate(-4 -5.01465)"/><path class="cls-1" d="M71.71765,164.39746c.34186-.36816.67536-.74414,1.02094-1.10864q1.95548-2.0614,3.98809-4.04541c.27729-.27027.56513-.5293.84461-.79712q1.63733-1.56994,3.32043-3.09082c.4798-.43189.96827-.854,1.454-1.2793q1.44232-1.26342,2.91724-2.49048.78607-.65222,1.58014-1.29516,1.53634-1.2389,3.11121-2.43335c.478-.3645.95031-.73487,1.43316-1.09351,1.5271-1.13428,3.072-2.24756,4.64716-3.32422a143.27153,143.27153,0,0,1,79.64355-25.0205l.25928-.00684c.16992-.00684.33984-.01172.51074-.01172l.231.00488.5083-.00488a143.92227,143.92227,0,0,1,109.23425,50.17578c-.01355-.16089-.02313-.32275-.03735-.4834-.03192-.36059-.06867-.72021-.10407-1.07983q-.0975-.99024-.21148-1.97681-.06473-.55554-.13452-1.1101-.12754-1.00525-.275-2.00562c-.049-.33643-.09552-.67334-.14758-1.009q-.193-1.24329-.41565-2.48c-.02924-.16382-.05444-.32837-.08447-.492q-.272-1.48168-.58612-2.95312c-.05786-.27246-.12207-.54321-.182-.81519-.15643-.70971-.31757-1.41821-.48828-2.12426-.084-.34717-.17206-.69336-.25946-1.03956q-.2416-.958-.50025-1.91162-.14409-.53027-.29266-1.05957-.27813-.98364-.577-1.96191c-.095-.313-.187-.62695-.28473-.939q-.40393-1.28979-.84027-2.57006c-.03266-.09595-.06244-.19263-.09534-.28833q-.48908-1.42164-1.02069-2.83155c-.107-.28515-.22022-.56836-.32959-.85254-.253-.65747-.51013-1.31372-.77625-1.96728-.13885-.34107-.28155-.68091-.42395-1.021q-.38031-.90747-.77728-1.8103c-.15009-.34107-.30042-.68189-.4541-1.02173q-.42718-.94482-.87518-1.88281c-.14045-.29566-.27741-.59253-.42066-.88721q-.66385-1.36707-1.364-2.72217A110.12636,110.12636,0,0,0,176.6275,67.71045l-.02057.00049-.02105-.00073c-.71735.00024-1.43128.01342-2.14539.02563-.29291.00537-.58612.00488-.8786.01245l-.13458.00244A110.35237,110.35237,0,0,0,78.05811,128.001q-.6971,1.36633-1.3512,2.74633c-.14295.3-.27887.6023-.41889.90308-.29083.625-.57873,1.25049-.85717,1.87915-.15692.354-.30884.70972-.46179,1.06494q-.37674.87488-.73865,1.75391-.22788.55554-.44959,1.11279-.35082.88221-.68445,1.76953c-.13616.3606-.27362.721-.40582,1.08277-.23553.644-.46142,1.291-.68445,1.93872-.10583.30737-.21594.61352-.319.92163q-.47826,1.43079-.91876,2.87182c-.01428.04712-.02685.09473-.04108.14185q-.41482,1.37256-.79174,2.75537c-.08814.322-.16925.646-.25434.969-.17193.65234-.341,1.30566-.50067,1.96118-.09106.37353-.17731.74853-.26434,1.12329q-.21414.92139-.41321,1.84643-.12387.579-.2417,1.15918-.18942.93458-.361,1.87354c-.06873.37256-.13886.74487-.20368,1.11865-.11944.68774-.22894,1.37793-.33526,2.06909-.04749.3086-.09943.61621-.14435.92554q-.2178,1.50074-.39673,3.01025c-.00928.0791-.01575.15869-.02484.2378q-.15995,1.39233-.28467,2.79272c-.02942.3291-.05194.65991-.07843.98975-.03985.49682-.07483.99487-.10809,1.49292.41363-.499.84546-.981,1.26544-1.47388.43274-.50806.86426-1.01685,1.30365-1.51855Q70.28144,165.93518,71.71765,164.39746Z" transform="translate(-4 -5.01465)"/><path class="cls-1" d="M286.69385,257.53564a110.51435,110.51435,0,0,0-56.7959-91.00048l.00012-.00025a110.49361,110.49361,0,0,0-106.89868,0l.00012.00025a110.51569,110.51569,0,0,0-56.79736,91.0205l-.00012.00293c-.09272,1.867-.13953,3.74244-.13953,5.57422v74.93946l22.34668-8.93946v-66a88.61794,88.61794,0,0,1,1.93555-18.3789c.05908-.2793.12011-.5586.18164-.83594l-.23145-.57813.39893-.16015c.07458-.32227.16351-.63916.24157-.96021.12793-.52612.25867-1.051.39588-1.57373.15472-.58911.31738-1.175.48382-1.75952.14728-.51733.29639-1.03369.45282-1.54712.17725-.58179.36316-1.15991.55207-1.73657.16632-.50806.33355-1.01563.50891-1.51953.19922-.57324.40808-1.14185.61889-1.70972.18531-.49927.37055-.99805.5647-1.49316.22156-.56494.45343-1.125.68653-1.68457.2033-.48828.4057-.97681.61767-1.4607.24414-.55761.49945-1.10937.75507-1.66113.22088-.47681.44-.95459.66943-1.427.2663-.54859.5445-1.09082.82221-1.63355.23834-.46557.47393-.93237.72058-1.39355.28906-.54053.59076-1.07373.89117-1.60791.25458-.45264.50556-.90723.76819-1.355.312-.53223.63739-1.05664.96075-1.58228.27045-.43945.53638-.88134.8147-1.31616.335-.52344.68408-1.03809,1.03052-1.55444.2854-.42554.56573-.85425.85882-1.27515.36048-.51733.73566-1.02515,1.10761-1.53516.29736-.40771.58862-.81909.89325-1.22216.388-.51294.7915-1.01563,1.19122-1.52076.30737-.38842.60779-.78125.92206-1.16479.41809-.51025.85242-1.00928,1.28271-1.51123.31373-.36572.61982-.73706.94-1.09839.45923-.51831.93561-1.02393,1.408-1.53247.30841-.332.6084-.67041.92242-.99829.5332-.55664,1.08466-1.09937,1.63379-1.644.26947-.26734.53-.54126.80322-.80542q1.24539-1.20411,2.54242-2.3667a87.99254,87.99254,0,0,1,117.3877,0q1.29766,1.16161,2.54242,2.3667c.27325.26416.53375.53808.80322.80542.54913.54467,1.10059,1.0874,1.63379,1.644.314.32788.614.66626.92242.99829.47242.50854.9488,1.01416,1.408,1.53247.32019.36133.62629.73267.94,1.09839.43029.50195.86462,1.001,1.28271,1.51123.31427.38354.61469.77637.92206,1.16479.39972.50513.80322,1.00782,1.19122,1.52076.30463.40307.59589.81445.89325,1.22216.37195.51.74713,1.01783,1.10761,1.53516.29309.4209.57342.84961.85882,1.27515.34644.51635.6955,1.031,1.03052,1.55444.27832.43482.54425.87671.8147,1.31616.32336.52564.64874,1.05.96075,1.58228.26264.44775.51361.90234.76819,1.355.30042.53418.60211,1.06738.89117,1.60791.24665.46118.48224.928.72059,1.39355.27771.54273.5559,1.085.8222,1.63355.22943.47241.44855.95019.66943,1.427.25562.55176.51093,1.10352.75507,1.66113.212.48389.41437.97242.61768,1.4607.23309.55957.465,1.11963.68652,1.68457.19415.49511.37939.99389.5647,1.49316.21081.56787.41967,1.13648.61889,1.70972.17536.5039.34259,1.01147.50891,1.51953.18891.57666.37482,1.15478.55207,1.73657.15643.51343.30554,1.02979.45282,1.54712.16644.58447.3291,1.17041.48382,1.75952.13721.52271.26795,1.04761.39588,1.57373.07806.321.167.63794.24157.96021l.39893.16015-.23145.57813c.06153.27734.12256.55664.18164.83594a88.61794,88.61794,0,0,1,1.93555,18.3789v66l22.34619,8.93946V263.13281c0-1.83008-.04687-3.707-.13965-5.57812Z" transform="translate(-4 -5.01465)"/><path class="cls-1" d="M231.14062,202A82.02234,82.02234,0,0,0,94.40918,263.13281v63.71778a22.19236,22.19236,0,0,1,28.34668,21.32129,53.69287,53.69287,0,1,0,107.38574,0,22.19236,22.19236,0,0,1,28.34668-21.32129V263.13281A82.59176,82.59176,0,0,0,256.68359,246,81.42937,81.42937,0,0,0,231.14062,202Z" transform="translate(-4 -5.01465)"/><path class="cls-1" d="M314.8985,168.63281l-.00006-.001a136.2757,136.2757,0,0,0-17.95606-59.8877,138.0069,138.0069,0,0,0-238.813-1.18066A136.23986,136.23986,0,0,0,39.563,167.2832c-.24414,3.38184-.36768,6.77051-.36768,10.07032V348.81934l20.86719-8.34766V263.13281c0-.41845.01135-.845.016-1.26709l-.016.00635v-83.7793a115.14541,115.14541,0,0,1,12.65088-52.81836A116.35119,116.35119,0,0,1,173.28516,61.752q1.57691-.04248,3.16308-.04492l.16681.00269.14862-.00269V61.71a116.10456,116.10456,0,0,1,103.02442,62.80469q.79614,1.53222,1.54364,3.08032c.17.35181.32788.70776.4942,1.06079.32184.68335.6466,1.36572.95447,2.05322.18389.41089.35461.82569.5335,1.238.27509.634.55445,1.2666.81769,1.9043.1839.44531.35443.89477.53253,1.342.24256.60889.48981,1.21655.72162,1.82861.17719.468.341.9397.51184,1.40943.217.59619.43866,1.19116.64545,1.79028.16583.48047.31854.9646.47784,1.44678.196.59326.39643,1.18554.58252,1.78149.15375.49243.29462.98828.44165,1.48267.17536.5896.35492,1.17822.52069,1.7705.14051.502.26856,1.00757.40217,1.51148.15625.5896.31646,1.178.46325,1.77.126.5083.24,1.02.35913,1.53027.13806.59156.27967,1.18238.40839,1.77637.11182.51636.21185,1.0354.31659,1.55347.11957.59155.24237,1.18237.35266,1.77636.097.52222.18262,1.04712.2724,1.571.102.595.20666,1.18921.29938,1.78638.08166.52612.1524,1.05468.2268,1.58252.08435.5979.17109,1.19531.24622,1.79516.06677.53369.12292,1.07007.18243,1.60523.06635.59765.13477,1.19482.192,1.79443.05158.54053.093,1.083.13715,1.62476.04882.59887.09924,1.19726.139,1.79809.036.54443.0622,1.09082.09076,1.63672.0315.603.06427,1.20557.08667,1.81006.02033.54687.03119,1.09546.044,1.6438.01025.43652.0296.87133.03509,1.30883.18476.24854.363.50025.546.74976.30219.41162.60413.82349.90156,1.23779.2713.37769.53826.75782.8056,1.1377.2923.41553.58465.83081.87225,1.24878.26282.38183.5213.76611.78015,1.1499.28455.42188.56922.844.849,1.26831.253.384.50153.77.75061,1.15576.27613.42774.55243.85523.82373,1.28516.245.38843.48529.779.72632,1.16919.2666.43164.53351.863.79529,1.29687.23651.39209.46808.78638.70062,1.18042.258.437.51642.87378.76953,1.31324.22626.39257.44763.78759.67,1.18212.25073.44483.50213.88965.74792,1.33692.2168.39429.42841.79077.6413,1.187.24176.44971.48425.89917.72094,1.35132.20923.39941.41315.80127.61847,1.20239.23175.45288.4643.90528.691,1.36035.2005.40235.39563.80689.59217,1.21094.2229.45825.44677.91577.66461,1.376.19061.40283.37567.80761.56244,1.21191.215.46558.43115.93067.641,1.39819.18133.40406.35705.81031.53454,1.21607.20575.47021.41272.9397.61329,1.41186.17321.408.34057.81763.50994,1.22706.19617.47412.39368.94775.58466,1.42382.164.40894.322.82007.48218,1.23023.18719.47973.376.95874.55792,1.44043.156.41284.30579.82788.45789,1.24219.17669.48144.3551.96191.52655,1.44506.14856.4187.29071.8396.43536,1.25953.1662.48266.33429.96484.49524,1.44921.14056.4231.27454.84815.41113,1.27271.15583.48413.31372.96753.4643,1.45337.13275.42871.25891.85913.38763,1.28906l.02966.09863V177.35352c0-2.78809-.09472-5.72266-.28222-8.72071Z" transform="translate(-4 -5.01465)"/><path class="cls-1" d="M176.76367,11.01465A166.51645,166.51645,0,0,0,11.06445,158.94629,169.2238,169.2238,0,0,0,10,177.77832v97.00781c0,1.501.02588,3.13086.07959,4.9834l.061,2.09863L10,281.92407v77.9021c0,.22071.00049.44336.00146.66992l23.19385-9.27734V177.35352c0-3.44336.12891-6.97657.3833-10.502a142.183,142.183,0,0,1,19.37793-62.32715,144.02921,144.02921,0,0,1,249.189,1.23145,142.22438,142.22438,0,0,1,18.74121,62.50293c.19482,3.12207.29394,6.18262.29394,9.09473v174.457l22.34327,8.9375c.00244-.31153.00341-.61817.00341-.92188V282.17554l-.1538-.06128.06445-2.10156c.061-1.98829.08935-3.64942.08935-5.22657V177.77832a169.2238,169.2238,0,0,0-1.06445-18.832A166.51644,166.51644,0,0,0,176.76367,11.01465Z" transform="translate(-4 -5.01465)"/><path d="M348.42578,158.27637a172.76667,172.76667,0,0,0-343.32422,0A175.368,175.368,0,0,0,4,177.77832V359.82617c0,1.5586.02686,3.24512.08252,5.15625l.124,4.29395,34.98877-13.99512v-.00049L66.0625,344.53418v-.00049l28.34668-11.33838.1416-.05664a16.19193,16.19193,0,0,1,22.20508,15.03321,59.69287,59.69287,0,1,0,119.38574,0,16.1911,16.1911,0,0,1,22.20557-15.03223l1.93982.77514,32.54748,13.01978v-.00049l22.34619,8.93848v.00049l34.12305,13.64843.13135-4.28613c.063-2.05078.09228-3.76953.09228-5.40918V177.77832A175.36564,175.36564,0,0,0,348.42578,158.27637Zm-89.9375,168.57422a22.19236,22.19236,0,0,0-28.34668,21.32129,53.69287,53.69287,0,1,1-107.38574,0,22.19236,22.19236,0,0,0-28.34668-21.32129V263.13281A82.59176,82.59176,0,0,1,96.21387,246a82.0502,82.0502,0,0,1,160.46972,0,82.59176,82.59176,0,0,1,1.80469,17.13281Zm28.34619,11.22168-22.34619-8.93946v-66a88.61794,88.61794,0,0,0-1.93555-18.3789c-.05908-.2793-.12011-.5586-.18164-.83594l.23145-.57813-.39893-.16015c-.07458-.32227-.16351-.63916-.24157-.96021-.12793-.52612-.25867-1.051-.39588-1.57373-.15472-.58911-.31738-1.175-.48382-1.75952-.14728-.51733-.29639-1.03369-.45282-1.54712-.17725-.58179-.36316-1.15991-.55207-1.73657-.16632-.50806-.33355-1.01563-.50891-1.51953-.19922-.57324-.40808-1.14185-.61889-1.70972-.18531-.49927-.37055-.99805-.5647-1.49316-.22156-.56494-.45343-1.125-.68652-1.68457-.20331-.48828-.40571-.97681-.61768-1.4607-.24414-.55761-.49945-1.10937-.75507-1.66113-.22088-.47681-.44-.95459-.66943-1.427-.2663-.54859-.54449-1.09082-.8222-1.63355-.23835-.46557-.47394-.93237-.72059-1.39355-.28906-.54053-.59075-1.07373-.89117-1.60791-.25458-.45264-.50555-.90723-.76819-1.355-.312-.53223-.63739-1.05664-.96075-1.58228-.27045-.43945-.53638-.88134-.8147-1.31616-.335-.52344-.68408-1.03809-1.03052-1.55444-.2854-.42554-.56573-.85425-.85882-1.27515-.36048-.51733-.73566-1.02515-1.10761-1.53516-.29736-.40771-.58862-.81909-.89325-1.22216-.388-.51294-.7915-1.01563-1.19122-1.52076-.30737-.38842-.60779-.78125-.92206-1.16479-.41809-.51025-.85242-1.00928-1.28271-1.51123-.31372-.36572-.61982-.73706-.94-1.09839-.45922-.51831-.9356-1.02393-1.408-1.53247-.30841-.332-.60839-.67041-.92242-.99829-.5332-.55664-1.08466-1.09937-1.63379-1.644-.26947-.26734-.53-.54126-.80322-.80542q-1.24539-1.20411-2.54242-2.3667a87.99254,87.99254,0,0,0-117.3877,0q-1.29767,1.16161-2.54242,2.3667c-.27325.26416-.53375.53808-.80322.80542-.54913.54467-1.10059,1.0874-1.63379,1.644-.314.32788-.614.66626-.92242.99829-.47241.50854-.94879,1.01416-1.408,1.53247-.32019.36133-.62628.73267-.94,1.09839-.43029.50195-.86462,1.001-1.28271,1.51123-.31427.38354-.61469.77637-.92206,1.16479-.39972.50513-.80322,1.00782-1.19122,1.52076-.30463.40307-.59589.81445-.89325,1.22216-.37195.51-.74713,1.01783-1.10761,1.53516-.29309.4209-.57342.84961-.85882,1.27515-.34644.51635-.6955,1.031-1.03052,1.55444-.27832.43482-.54425.87671-.8147,1.31616-.32336.52564-.64874,1.05-.96075,1.58228-.26263.44775-.51361.90234-.76819,1.355-.30041.53418-.60211,1.06738-.89117,1.60791-.24665.46118-.48224.928-.72058,1.39355-.27771.54273-.55591,1.085-.82221,1.63355-.22943.47241-.44855.95019-.66943,1.427-.25562.55176-.51093,1.10352-.75507,1.66113-.212.48389-.41437.97242-.61767,1.4607-.2331.55957-.465,1.11963-.68653,1.68457-.19415.49511-.37939.99389-.5647,1.49316-.21081.56787-.41967,1.13648-.61889,1.70972-.17536.5039-.34259,1.01147-.50891,1.51953-.18891.57666-.37482,1.15478-.55207,1.73657-.15643.51343-.30554,1.02979-.45282,1.54712-.16644.58447-.3291,1.17041-.48382,1.75952-.13721.52271-.26795,1.04761-.39588,1.57373-.07806.321-.167.63794-.24157.96021l-.39893.16015.23145.57813c-.06153.27734-.12256.55664-.18164.83594a88.61794,88.61794,0,0,0-1.93555,18.3789v66L66.0625,338.07227V263.13281c0-1.83178.04681-3.70727.13953-5.57422l.00012-.00293a110.51569,110.51569,0,0,1,56.79736-91.0205l-.00012-.00025a110.49361,110.49361,0,0,1,106.89868,0l-.00012.00025a110.51435,110.51435,0,0,1,56.7959,91.00048l.001.019c.09278,1.87109.13965,3.748.13965,5.57812Zm28.34619-69.27051v80.6084l-22.34619-8.93848V263.13281c0-1.92871-.04931-3.90527-.14648-5.875h-.00049l-.16736.0083-1.9433.09595,2.11066-.10522a116.51487,116.51487,0,0,0-59.87939-95.96973l-1.45508,2.624,1.45459-2.624a116.49683,116.49683,0,0,0-112.71778,0l1.45459,2.624-1.45507-2.624a116.54916,116.54916,0,0,0-30.92969,24.87207c-.9773,1.10742-1.92462,2.23828-2.85669,3.38013-.17066.209-.34284.41674-.512.62671q-1.33,1.65308-2.59613,3.35156c-.16687.22363-.33075.44922-.49592.67407-.86181,1.1731-1.70782,2.35669-2.5238,3.55981-.03558.0525-.0694.106-.10492.1587-.7948,1.17578-1.56232,2.36889-2.3128,3.57177-.13733.22022-.27674.43872-.4126.65967q-1.10605,1.79956-2.14441,3.6377c-.1402.24756-.27765.49658-.416.74536-.70025,1.259-1.38366,2.5271-2.03656,3.8103-.0484.095-.09375.19165-.1419.28687q-.93942,1.85888-1.80823,3.75122c-.10175.22046-.20612.43945-.30646.6604q-.87387,1.92516-1.67547,3.88159c-.10907.26538-.21589.53149-.32306.79761-.53455,1.32812-1.05091,2.66381-1.53644,4.01049-.0481.13355-.09241.26832-.14.40186-.2564.71973-.51147,1.43945-.75378,2.16406V180.61084c.53546-.72632,1.08722-1.438,1.63568-2.15283.55408-.72193,1.09851-1.45288,1.66577-2.16284.66468-.832,1.35437-1.64038,2.03693-2.45557.57739-.6897,1.14429-1.3894,1.73437-2.06689.70472-.80933,1.43494-1.59351,2.15754-2.38526.59771-.655,1.18408-1.32129,1.79394-1.96411.74957-.79053,1.52527-1.5542,2.29291-2.32617.61188-.61524,1.21155-1.24317,1.83478-1.84668.80383-.77832,1.63458-1.52832,2.45721-2.28711.61548-.56787,1.21784-1.14917,1.84369-1.70581.87738-.78,1.78241-1.53,2.68-2.28784.59839-.50562,1.183-1.02637,1.79029-1.52173,1.01489-.82788,2.05865-1.62305,3.09808-2.4231.51532-.39648,1.01636-.80957,1.53766-1.19946q2.35959-1.76367,4.799-3.43286a137.29493,137.29493,0,0,1,76.3291-23.97363l.00836-.00025.95356-.01245V124.406l.477-.00562A137.98672,137.98672,0,0,1,315.18066,262.39258ZM66.32422,170.51221c.03326-.49805.06824-.9961.10809-1.49292.02649-.32984.049-.66065.07843-.98975q.12488-1.40039.28467-2.79272c.00909-.07911.01556-.1587.02484-.2378q.1767-1.50988.39673-3.01025c.04492-.30933.09686-.61694.14435-.92554.10632-.69116.21582-1.38135.33526-2.06909.06482-.37378.135-.74609.20368-1.11865q.17313-.9386.361-1.87354.11755-.58044.2417-1.15918.19812-.92505.41321-1.84643c.087-.37476.17328-.74976.26434-1.12329.15967-.65552.32874-1.30884.50067-1.96118.08509-.323.1662-.647.25434-.969q.3781-1.38244.79174-2.75537c.01423-.04712.0268-.09473.04108-.14185q.43789-1.44177.91876-2.87182c.103-.30811.21314-.61426.319-.92163.223-.64771.44892-1.29468.68445-1.93872.1322-.36182.26966-.72217.40582-1.08277q.335-.887.68445-1.76953.22156-.55737.44959-1.11279.3609-.87965.73865-1.75391c.153-.35522.30487-.71094.46179-1.06494.27844-.62866.56634-1.25415.85717-1.87915.14-.30078.27594-.603.41889-.90308q.6569-1.37878,1.3512-2.74633a110.35237,110.35237,0,0,1,95.3692-60.25025l.13458-.00244c.29248-.00757.58569-.00708.8786-.01245.71411-.01221,1.428-.02539,2.14539-.02563l.02105.00073.02057-.00049a110.12636,110.12636,0,0,1,97.83637,59.56982q.70349,1.35426,1.364,2.72217c.14325.29468.28021.59155.42066.88721q.44577.939.87518,1.88281c.15368.33984.304.68066.4541,1.02173q.39724.90272.77728,1.8103c.1424.34009.2851.67993.42395,1.021.26612.65356.52326,1.30981.77625,1.96728.10937.28418.22259.56739.32959.85254q.52917,1.41028,1.02069,2.83155c.0329.0957.06268.19238.09534.28833q.43643,1.28027.84027,2.57006c.09777.312.18975.626.28473.939q.2969.97851.577,1.96191.1496.52918.29266,1.05957.2591.95363.50025,1.91162c.0874.3462.17547.69239.25946,1.03956.17071.70605.33185,1.41455.48828,2.12426.05994.272.12415.54273.182.81519q.31264,1.47144.58612,2.95312c.03.16358.05523.32813.08447.492q.22128,1.23669.41565,2.48c.05206.33569.09857.6726.14758,1.009q.14585,1.00086.275,2.00562.07031.55443.13452,1.1101.115.9862.21148,1.97681c.0354.35962.07215.71924.10407,1.07983.01422.16065.0238.32251.03735.4834A143.92227,143.92227,0,0,0,177.1875,118.40039l-.5083.00488-.231-.00488c-.1709,0-.34082.00488-.51074.01172l-.25928.00684a143.27153,143.27153,0,0,0-79.64355,25.0205c-1.57514,1.07666-3.12006,2.18994-4.64716,3.32422-.48285.35864-.9552.729-1.43316,1.09351q-1.57188,1.19787-3.11121,2.43335-.79569.64123-1.58014,1.29516-1.47655,1.22571-2.91724,2.49048c-.48577.42529-.97424.84741-1.454,1.2793q-1.68639,1.51758-3.32043,3.09082c-.27948.26782-.56732.52685-.84461.79712q-2.0341,1.98193-3.98809,4.04541c-.34558.3645-.67908.74048-1.02094,1.10864q-1.43216,1.54174-2.82434,3.12232c-.43939.5017-.87091,1.01049-1.30365,1.51855C67.16968,169.53125,66.73785,170.01318,66.32422,170.51221Zm248.85644,50.53515-.02966-.09863c-.12872-.42993-.25488-.86035-.38763-1.28906-.15058-.48584-.30847-.96924-.4643-1.45337-.13659-.42456-.27057-.84961-.41113-1.27271-.161-.48437-.329-.96655-.49524-1.44921-.14465-.41993-.2868-.84083-.43536-1.25953-.17145-.48315-.34986-.96362-.52655-1.44506-.1521-.41431-.30188-.82935-.45789-1.24219-.18195-.48169-.37073-.9607-.55792-1.44043-.16016-.41016-.31818-.82129-.48218-1.23023-.191-.47607-.38849-.9497-.58466-1.42382-.16937-.40943-.33673-.8191-.50994-1.22706-.20057-.47216-.40754-.94165-.61329-1.41186-.17749-.40576-.35321-.812-.53454-1.21607-.20984-.46752-.426-.93261-.641-1.39819-.18677-.4043-.37183-.80908-.56244-1.21191-.21784-.46021-.44171-.91773-.66461-1.376-.19654-.404-.39167-.80859-.59217-1.21094-.22674-.45507-.45929-.90747-.691-1.36035-.20532-.40112-.40924-.803-.61847-1.20239-.23669-.45215-.47918-.90161-.72094-1.35132-.21289-.39624-.4245-.79272-.6413-1.187-.24579-.44727-.49719-.89209-.74792-1.33692-.22236-.39453-.44373-.78955-.67-1.18212-.25311-.43946-.51153-.87622-.76953-1.31324-.23254-.394-.46411-.78833-.70062-1.18042-.26178-.43383-.52869-.86523-.79529-1.29687-.241-.39014-.48132-.78076-.72632-1.16919-.2713-.42993-.5476-.85742-.82373-1.28516-.24908-.38574-.49756-.77173-.75061-1.15576-.27978-.42432-.56445-.84643-.849-1.26831-.25885-.38379-.51733-.76807-.78015-1.1499-.2876-.418-.57995-.83325-.87225-1.24878-.26734-.37988-.5343-.76-.8056-1.1377-.29743-.4143-.59937-.82617-.90156-1.23779-.183-.24951-.36126-.50122-.546-.74976-.00549-.4375-.02484-.87231-.03509-1.30883-.01282-.54834-.02368-1.09693-.044-1.6438-.0224-.60449-.05517-1.207-.08667-1.81006-.02856-.5459-.05475-1.09229-.09076-1.63672-.03973-.60083-.09015-1.19922-.139-1.79809-.04419-.54175-.08557-1.08423-.13715-1.62476-.05725-.59961-.12567-1.19678-.192-1.79443-.05951-.53516-.11566-1.07154-.18243-1.60523-.07513-.59985-.16187-1.19726-.24622-1.79516-.0744-.52784-.14514-1.0564-.2268-1.58252-.09272-.59717-.19739-1.19141-.29938-1.78638-.08978-.52393-.17542-1.04883-.2724-1.571-.11029-.594-.23309-1.18481-.35266-1.77636-.10474-.51807-.20477-1.03711-.31659-1.55347-.12872-.594-.27033-1.18481-.40839-1.77637-.11908-.51025-.23309-1.022-.35913-1.53027-.14679-.592-.307-1.18042-.46325-1.77-.13361-.50391-.26166-1.00952-.40217-1.51148-.16577-.59228-.34533-1.1809-.52069-1.7705-.147-.49439-.2879-.99024-.44165-1.48267-.18609-.59595-.38653-1.18823-.58252-1.78149-.1593-.48218-.312-.96631-.47784-1.44678-.20679-.59912-.42847-1.19409-.64545-1.79028-.17083-.46973-.33465-.94141-.51184-1.40943-.23181-.61206-.47906-1.21972-.72162-1.82861-.1781-.44727-.34863-.89673-.53253-1.342-.26324-.6377-.5426-1.27027-.81769-1.9043-.17889-.41235-.34961-.82715-.5335-1.238-.30787-.6875-.63263-1.36987-.95447-2.05322-.16632-.353-.32416-.709-.4942-1.06079q-.748-1.548-1.54364-3.08032A116.10456,116.10456,0,0,0,176.76367,61.71V61.707l-.14862.00269-.16681-.00269q-1.58715,0-3.16308.04492A116.35119,116.35119,0,0,0,72.71338,125.27441,115.14541,115.14541,0,0,0,60.0625,178.09277v83.7793l.016-.00635c-.00464.42212-.016.84864-.016,1.26709v77.33887l-20.86719,8.34766V177.35352c0-3.29981.12354-6.68848.36768-10.07032a136.23986,136.23986,0,0,1,18.5664-59.71972,138.02949,138.02949,0,0,1,238.813,1.18066,136.2757,136.2757,0,0,1,17.95606,59.8877l.00006.001h-.00006c.1875,2.99805.28222,5.93262.28222,8.72071Zm28.34668,41.77v11.96875c0,1.57715-.02832,3.23828-.08935,5.22657l-.06445,2.10156.1538.06128v77.65063c0,.30371-.001.61035-.00341.92188l-22.34327-8.9375v-174.457c0-2.91211-.09912-5.97266-.29394-9.09473a142.22438,142.22438,0,0,0-18.74121-62.50293,144.00611,144.00611,0,0,0-249.189-1.23145,142.183,142.183,0,0,0-19.37793,62.32715c-.25439,3.52539-.3833,7.0586-.3833,10.502V351.21875l-23.19385,9.27734c-.001-.22656-.00146-.44921-.00146-.66992v-77.9021l.14062-.05591-.061-2.09863C10.02588,277.917,10,276.28711,10,274.78613V177.77832a169.2238,169.2238,0,0,1,1.06445-18.832,166.76622,166.76622,0,0,1,331.39844,0,169.2238,169.2238,0,0,1,1.06445,18.832Z" transform="translate(-4 -5.01465)"/></svg>