<?xml version="1.0" encoding="utf-8"?>
<!-- Generator: Adobe Illustrator 25.3.1, SVG Export Plug-In . SVG Version: 6.00 Build 0)  -->
<svg version="1.1" id="Layer_1" xmlns="http://www.w3.org/2000/svg" xmlns:xlink="http://www.w3.org/1999/xlink" x="0px" y="0px"
	 viewBox="0 0 340 164" style="enable-background:new 0 0 340 164;" xml:space="preserve">
<style type="text/css">
	.st0{fill:#D7D5D5;}
</style>
<g>
	<path class="st0" d="M340,164H0l0-0.5c0.7-9.7,2-18.8,3.8-27.2c6.8-32.7,21.4-61,43.5-83.8c21.5-22.3,49.8-38.6,81.8-47.1
		C142.3,1.8,156.1,0,170,0c64.7,0,125.8,37.9,152.3,94.2c6.1,12.9,10.7,27.1,13.8,42.1l0,0c1.8,8.6,3.1,17.5,3.8,27.2L340,164z
		 M1.1,163h337.8c-0.7-9.4-2-18.1-3.7-26.5v0c-3.1-15-7.7-29-13.8-41.9C295.1,38.6,234.3,1,170,1c-13.9,0-27.5,1.8-40.6,5.3
		c-31.9,8.5-60,24.7-81.4,46.9c-22,22.8-36.5,50.8-43.3,83.4C3.1,144.7,1.8,153.6,1.1,163z"/>
</g>
</svg>
